# xmcd CD database file
#
# Track frame offsets:
#	212
#	18638
#	33677
#
# Disc length: 694 seconds
#
# Revision: 0
# Processed by: cddbd v1.5.2PL0 Copyright (c) Steve Scherf et al.
# Submitted via: CDex 1.70beta2
#
DISCID=2102b403
DTITLE=Scooter Lee - Somebody Loves You (That's Me)
DYEAR=1900
DGENRE=Country
TTITLE0=Somebody Loves You (That's Me)
TTITLE1=Baby, Please Come Home
TTITLE2=Test Of Time
EXTD=
EXTT0=
EXTT1=
EXTT2=
PLAYORDER=
